<svg xmlns="http://www.w3.org/2000/svg" width="188.203" height="49.848" viewBox="0 0 188.203 49.848"><path d="M11.122-4.288h22.11V0H6.3V-47.436h4.824Zm74.236-19.43a25.97,25.97,0,0,1-1.876,9.983,23.823,23.823,0,0,1-5.192,7.872A23.909,23.909,0,0,1,70.451-.67a25.364,25.364,0,0,1-9.815,1.876A25.364,25.364,0,0,1,50.819-.67,23.909,23.909,0,0,1,42.98-5.862a23.824,23.824,0,0,1-5.193-7.872,25.971,25.971,0,0,1-1.876-9.983A25.971,25.971,0,0,1,37.788-33.7a23.824,23.824,0,0,1,5.193-7.873,23.909,23.909,0,0,1,7.839-5.193,25.364,25.364,0,0,1,9.816-1.876,25.364,25.364,0,0,1,9.815,1.876,23.909,23.909,0,0,1,7.839,5.193A23.823,23.823,0,0,1,83.482-33.7,25.97,25.97,0,0,1,85.358-23.718Zm-5.092,0a23.328,23.328,0,0,0-1.34-7.906,19.76,19.76,0,0,0-3.886-6.6,18.6,18.6,0,0,0-6.2-4.523,19.463,19.463,0,0,0-8.207-1.675,19.463,19.463,0,0,0-8.208,1.675,18.605,18.605,0,0,0-6.2,4.523,19.76,19.76,0,0,0-3.886,6.6A23.328,23.328,0,0,0,41-23.718a23.328,23.328,0,0,0,1.34,7.906A19.391,19.391,0,0,0,46.23-9.246a18.831,18.831,0,0,0,6.2,4.489,19.463,19.463,0,0,0,8.208,1.675,19.463,19.463,0,0,0,8.207-1.675,18.831,18.831,0,0,0,6.2-4.489,19.391,19.391,0,0,0,3.886-6.566A23.328,23.328,0,0,0,80.266-23.718Zm51.121-15.209a17.278,17.278,0,0,0-5.9-4.054,20.03,20.03,0,0,0-7.839-1.44,19.463,19.463,0,0,0-8.207,1.675,18.605,18.605,0,0,0-6.2,4.523,20.221,20.221,0,0,0-3.92,6.6,22.816,22.816,0,0,0-1.373,7.906,22.816,22.816,0,0,0,1.373,7.906,19.837,19.837,0,0,0,3.92,6.566,18.831,18.831,0,0,0,6.2,4.489,19.463,19.463,0,0,0,8.207,1.675,29.26,29.26,0,0,0,7.37-.871,18.752,18.752,0,0,0,5.427-2.211V-20.569H119.394V-24.79h15.879V-3.417A30.752,30.752,0,0,1,126.9.067a37.722,37.722,0,0,1-9.313,1.139A25.791,25.791,0,0,1,107.669-.67,23.452,23.452,0,0,1,99.83-5.862,23.658,23.658,0,0,1,94.7-13.735a26.386,26.386,0,0,1-1.842-9.983A25.971,25.971,0,0,1,94.738-33.7a23.823,23.823,0,0,1,5.193-7.873,23.909,23.909,0,0,1,7.839-5.193,25.364,25.364,0,0,1,9.815-1.876,26.8,26.8,0,0,1,9.916,1.675,21.1,21.1,0,0,1,7.236,4.69ZM194.5-23.718a25.971,25.971,0,0,1-1.876,9.983,23.824,23.824,0,0,1-5.193,7.872A23.909,23.909,0,0,1,179.593-.67a25.364,25.364,0,0,1-9.815,1.876A25.364,25.364,0,0,1,159.962-.67a23.909,23.909,0,0,1-7.839-5.192,23.823,23.823,0,0,1-5.192-7.872,25.97,25.97,0,0,1-1.876-9.983,25.97,25.97,0,0,1,1.876-9.983,23.823,23.823,0,0,1,5.192-7.873,23.909,23.909,0,0,1,7.839-5.193,25.364,25.364,0,0,1,9.816-1.876,25.364,25.364,0,0,1,9.815,1.876,23.909,23.909,0,0,1,7.839,5.193,23.824,23.824,0,0,1,5.193,7.873A25.971,25.971,0,0,1,194.5-23.718Zm-5.092,0a23.328,23.328,0,0,0-1.34-7.906,19.76,19.76,0,0,0-3.886-6.6,18.6,18.6,0,0,0-6.2-4.523,19.463,19.463,0,0,0-8.208-1.675,19.463,19.463,0,0,0-8.208,1.675,18.605,18.605,0,0,0-6.2,4.523,19.76,19.76,0,0,0-3.886,6.6,23.328,23.328,0,0,0-1.34,7.906,23.328,23.328,0,0,0,1.34,7.906,19.391,19.391,0,0,0,3.886,6.566,18.831,18.831,0,0,0,6.2,4.489,19.463,19.463,0,0,0,8.208,1.675,19.463,19.463,0,0,0,8.208-1.675,18.831,18.831,0,0,0,6.2-4.489,19.391,19.391,0,0,0,3.886-6.566A23.328,23.328,0,0,0,189.409-23.718Z" transform="translate(-6.298 48.642)" fill="#fff"/></svg>